bicep_curl
version=1
nRows=409
nColumns=3
inDegrees=yes

# SIMM Motion File Header:
name bicep_curl
datacolumns 3
datarows 409
otherdata 1
range 0.0000 0.4080
endheader
time	/jointset/r_shoulder/r_shoulder_elev/value	/jointset/r_elbow/r_elbow_flex/value
0.0000	0.0000	7.9800
0.0010	0.0000	8.0955
0.0020	0.0000	8.2110
0.0030	0.0000	8.3265
0.0040	0.0000	8.4420
0.0050	0.0000	8.5575
0.0060	0.0000	8.6730
0.0070	0.0000	8.7885
0.0080	0.0000	8.9040
0.0090	0.0000	9.0195
0.0100	0.0000	9.1350
0.0110	0.0000	9.2505
0.0120	0.0000	9.3660
0.0130	0.0000	9.4815
0.0140	0.0000	9.5970
0.0150	0.0000	9.7125
0.0160	0.0000	9.8280
0.0170	0.0000	9.9435
0.0180	0.0000	10.0590
0.0190	0.0000	10.1745
0.0200	0.0000	10.2900
0.0210	0.0000	10.4055
0.0220	0.0000	10.5210
0.0230	0.0000	10.6365
0.0240	0.0000	10.7520
0.0250	0.0000	10.8675
0.0260	0.0000	10.9830
0.0270	0.0000	11.0985
0.0280	0.0000	11.2140
0.0290	0.0000	11.3295
0.0300	0.0000	11.4450
0.0310	0.0000	11.5605
0.0320	0.0000	11.6760
0.0330	0.0000	11.7915
0.0340	0.0000	11.9070
0.0350	0.0000	12.0225
0.0360	0.0000	12.1380
0.0370	0.0000	12.2535
0.0380	0.0000	12.3690
0.0390	0.0000	12.4845
0.0400	0.0000	12.6000
0.0410	0.0000	12.7155
0.0420	0.0000	12.8310
0.0430	0.0000	12.9465
0.0440	0.0000	13.0620
0.0450	0.0000	13.1775
0.0460	0.0000	13.2930
0.0470	0.0000	13.4085
0.0480	0.0000	13.5240
0.0490	0.0000	13.6395
0.0500	0.0000	13.7550
0.0510	0.0000	13.8705
0.0520	0.0000	13.9860
0.0530	0.0000	14.1015
0.0540	0.0000	14.2170
0.0550	0.0000	14.3325
0.0560	0.0000	14.4480
0.0570	0.0000	14.5635
0.0580	0.0000	14.6790
0.0590	0.0000	14.7945
0.0600	0.0000	14.9100
0.0610	0.0000	15.0255
0.0620	0.0000	15.1410
0.0630	0.0000	15.2565
0.0640	0.0000	15.3720
0.0650	0.0000	15.4875
0.0660	0.0000	15.6030
0.0670	0.0000	15.7185
0.0680	0.0000	15.8340
0.0690	0.0000	15.9495
0.0700	0.0000	16.0650
0.0710	0.0000	16.1805
0.0720	0.0000	16.2960
0.0730	0.0000	16.4115
0.0740	0.0000	16.5270
0.0750	0.0000	16.6425
0.0760	0.0000	16.7580
0.0770	0.0000	16.8735
0.0780	0.0000	16.9890
0.0790	0.0000	17.1045
0.0800	0.0000	17.2200
0.0810	0.0000	17.3355
0.0820	0.0000	17.4510
0.0830	0.0000	17.5665
0.0840	0.0000	17.6820
0.0850	0.0000	17.7975
0.0860	0.0000	17.9130
0.0870	0.0000	18.0285
0.0880	0.0000	18.1440
0.0890	0.0000	18.2595
0.0900	0.0000	18.3750
0.0910	0.0000	18.4905
0.0920	0.0000	18.6060
0.0930	0.0000	18.7215
0.0940	0.0000	18.8370
0.0950	0.0000	18.9525
0.0960	0.0000	19.0680
0.0970	0.0000	19.1835
0.0980	0.0000	19.2990
0.0990	0.0000	19.4145
0.1000	0.0000	19.5300
0.1010	0.0000	19.6455
0.1020	0.0000	19.7610
0.1030	0.0000	19.8765
0.1040	0.0000	19.9920
0.1050	0.0000	20.1075
0.1060	0.0000	20.2230
0.1070	0.0000	20.3385
0.1080	0.0000	20.4540
0.1090	0.0000	20.5695
0.1100	0.0000	20.6850
0.1110	0.0000	20.8005
0.1120	0.0000	20.9160
0.1130	0.0000	21.0315
0.1140	0.0000	21.1470
0.1150	0.0000	21.2625
0.1160	0.0000	21.3780
0.1170	0.0000	21.4935
0.1180	0.0000	21.6090
0.1190	0.0000	21.7245
0.1200	0.0000	21.8400
0.1210	0.0000	21.9555
0.1220	0.0000	22.0710
0.1230	0.0000	22.1865
0.1240	0.0000	22.3020
0.1250	0.0000	22.4175
0.1260	0.0000	22.5330
0.1270	0.0000	22.6485
0.1280	0.0000	22.7640
0.1290	0.0000	22.8795
0.1300	0.0000	22.9950
0.1310	0.0000	23.1105
0.1320	0.0000	23.2260
0.1330	0.0000	23.3415
0.1340	0.0000	23.4570
0.1350	0.0000	23.5725
0.1360	0.0000	23.6880
0.1370	0.0000	23.8035
0.1380	0.0000	23.9190
0.1390	0.0000	24.0345
0.1400	0.0000	24.1500
0.1410	0.0000	24.2655
0.1420	0.0000	24.3810
0.1430	0.0000	24.4965
0.1440	0.0000	24.6120
0.1450	0.0000	24.7275
0.1460	0.0000	24.8430
0.1470	0.0000	24.9585
0.1480	0.0000	25.0740
0.1490	0.0000	25.1895
0.1500	0.0000	25.3050
0.1510	0.0000	25.4205
0.1520	0.0000	25.5360
0.1530	0.0000	25.6515
0.1540	0.0000	25.7670
0.1550	0.0000	25.8825
0.1560	0.0000	25.9980
0.1570	0.0000	26.1135
0.1580	0.0000	26.2290
0.1590	0.0000	26.3445
0.1600	0.0000	26.4600
0.1610	0.0000	26.5755
0.1620	0.0000	26.6910
0.1630	0.0000	26.8065
0.1640	0.0000	26.9220
0.1650	0.0000	27.0375
0.1660	0.0000	27.1530
0.1670	0.0000	27.2685
0.1680	0.0000	27.3840
0.1690	0.0000	27.4995
0.1700	0.0000	27.6150
0.1710	0.0000	27.7305
0.1720	0.0000	27.8460
0.1730	0.0000	27.9615
0.1740	0.0000	28.0770
0.1750	0.0000	28.1925
0.1760	0.0000	28.3080
0.1770	0.0000	28.4235
0.1780	0.0000	28.5390
0.1790	0.0000	28.6545
0.1800	0.0000	28.7700
0.1810	0.0000	28.8855
0.1820	0.0000	29.0010
0.1830	0.0000	29.1165
0.1840	0.0000	29.2320
0.1850	0.0000	29.3475
0.1860	0.0000	29.4630
0.1870	0.0000	29.5785
0.1880	0.0000	29.6940
0.1890	0.0000	29.8095
0.1900	0.0000	29.9250
0.1910	0.0000	30.0405
0.1920	0.0000	30.1560
0.1930	0.0000	30.2715
0.1940	0.0000	30.3870
0.1950	0.0000	30.5025
0.1960	0.0000	30.6180
0.1970	0.0000	30.7335
0.1980	0.0000	30.8490
0.1990	0.0000	30.9645
0.2000	0.0000	31.0800
0.2010	0.0000	31.1955
0.2020	0.0000	31.3110
0.2030	0.0000	31.4265
0.2040	0.0000	31.5420
0.2050	0.0000	31.6575
0.2060	0.0000	31.7730
0.2070	0.0000	31.8885
0.2080	0.0000	32.0040
0.2090	0.0000	32.1195
0.2100	0.0000	32.2350
0.2110	0.0000	32.3505
0.2120	0.0000	32.4660
0.2130	0.0000	32.5815
0.2140	0.0000	32.6970
0.2150	0.0000	32.8125
0.2160	0.0000	32.9280
0.2170	0.0000	33.0435
0.2180	0.0000	33.1590
0.2190	0.0000	33.2745
0.2200	0.0000	33.3900
0.2210	0.0000	33.5055
0.2220	0.0000	33.6210
0.2230	0.0000	33.7365
0.2240	0.0000	33.8520
0.2250	0.0000	33.9675
0.2260	0.0000	34.0830
0.2270	0.0000	34.1985
0.2280	0.0000	34.3140
0.2290	0.0000	34.4295
0.2300	0.0000	34.5450
0.2310	0.0000	34.6605
0.2320	0.0000	34.7760
0.2330	0.0000	34.8915
0.2340	0.0000	35.0070
0.2350	0.0000	35.1225
0.2360	0.0000	35.2380
0.2370	0.0000	35.3535
0.2380	0.0000	35.4690
0.2390	0.0000	35.5845
0.2400	0.0000	35.7000
0.2410	0.0000	35.8155
0.2420	0.0000	35.9310
0.2430	0.0000	36.0465
0.2440	0.0000	36.1620
0.2450	0.0000	36.2775
0.2460	0.0000	36.3930
0.2470	0.0000	36.5085
0.2480	0.0000	36.6240
0.2490	0.0000	36.7395
0.2500	0.0000	36.8550
0.2510	0.0000	36.9705
0.2520	0.0000	37.0860
0.2530	0.0000	37.2015
0.2540	0.0000	37.3170
0.2550	0.0000	37.4325
0.2560	0.0000	37.5480
0.2570	0.0000	37.6635
0.2580	0.0000	37.7790
0.2590	0.0000	37.8945
0.2600	0.0000	38.0100
0.2610	0.0000	38.1255
0.2620	0.0000	38.2410
0.2630	0.0000	38.3565
0.2640	0.0000	38.4720
0.2650	0.0000	38.5875
0.2660	0.0000	38.7030
0.2670	0.0000	38.8185
0.2680	0.0000	38.9340
0.2690	0.0000	39.0495
0.2700	0.0000	39.1650
0.2710	0.0000	39.2805
0.2720	0.0000	39.3960
0.2730	0.0000	39.5115
0.2740	0.0000	39.6270
0.2750	0.0000	39.7425
0.2760	0.0000	39.8580
0.2770	0.0000	39.9735
0.2780	0.0000	40.0890
0.2790	0.0000	40.2045
0.2800	0.0000	40.3200
0.2810	0.0000	40.4355
0.2820	0.0000	40.5510
0.2830	0.0000	40.6665
0.2840	0.0000	40.7820
0.2850	0.0000	40.8975
0.2860	0.0000	41.0130
0.2870	0.0000	41.1285
0.2880	0.0000	41.2440
0.2890	0.0000	41.3595
0.2900	0.0000	41.4750
0.2910	0.0000	41.5905
0.2920	0.0000	41.7060
0.2930	0.0000	41.8215
0.2940	0.0000	41.9370
0.2950	0.0000	42.0525
0.2960	0.0000	42.1680
0.2970	0.0000	42.2835
0.2980	0.0000	42.3990
0.2990	0.0000	42.5145
0.3000	0.0000	42.6300
0.3010	0.0000	42.7455
0.3020	0.0000	42.8610
0.3030	0.0000	42.9765
0.3040	0.0000	43.0920
0.3050	0.0000	43.2075
0.3060	0.0000	43.3230
0.3070	0.0000	43.4385
0.3080	0.0000	43.5540
0.3090	0.0000	43.6695
0.3100	0.0000	43.7850
0.3110	0.0000	43.9005
0.3120	0.0000	44.0160
0.3130	0.0000	44.1315
0.3140	0.0000	44.2470
0.3150	0.0000	44.3625
0.3160	0.0000	44.4780
0.3170	0.0000	44.5935
0.3180	0.0000	44.7090
0.3190	0.0000	44.8245
0.3200	0.0000	44.9400
0.3210	0.0000	45.0555
0.3220	0.0000	45.1710
0.3230	0.0000	45.2865
0.3240	0.0000	45.4020
0.3250	0.0000	45.5175
0.3260	0.0000	45.6330
0.3270	0.0000	45.7485
0.3280	0.0000	45.8640
0.3290	0.0000	45.9795
0.3300	0.0000	46.0950
0.3310	0.0000	46.2105
0.3320	0.0000	46.3260
0.3330	0.0000	46.4415
0.3340	0.0000	46.5570
0.3350	0.0000	46.6725
0.3360	0.0000	46.7880
0.3370	0.0000	46.9035
0.3380	0.0000	47.0190
0.3390	0.0000	47.1345
0.3400	0.0000	47.2500
0.3410	0.0000	47.3655
0.3420	0.0000	47.4810
0.3430	0.0000	47.5965
0.3440	0.0000	47.7120
0.3450	0.0000	47.8275
0.3460	0.0000	47.9430
0.3470	0.0000	48.0585
0.3480	0.0000	48.1740
0.3490	0.0000	48.2895
0.3500	0.0000	48.4050
0.3510	0.0000	48.5205
0.3520	0.0000	48.6360
0.3530	0.0000	48.7515
0.3540	0.0000	48.8670
0.3550	0.0000	48.9825
0.3560	0.0000	49.0980
0.3570	0.0000	49.2135
0.3580	0.0000	49.3290
0.3590	0.0000	49.4445
0.3600	0.0000	49.5600
0.3610	0.0000	49.6755
0.3620	0.0000	49.7910
0.3630	0.0000	49.9065
0.3640	0.0000	50.0220
0.3650	0.0000	50.1375
0.3660	0.0000	50.2530
0.3670	0.0000	50.3685
0.3680	0.0000	50.4840
0.3690	0.0000	50.5995
0.3700	0.0000	50.7150
0.3710	0.0000	50.8305
0.3720	0.0000	50.9460
0.3730	0.0000	51.0615
0.3740	0.0000	51.1770
0.3750	0.0000	51.2925
0.3760	0.0000	51.4080
0.3770	0.0000	51.5235
0.3780	0.0000	51.6390
0.3790	0.0000	51.7545
0.3800	0.0000	51.8700
0.3810	0.0000	51.9855
0.3820	0.0000	52.1010
0.3830	0.0000	52.2165
0.3840	0.0000	52.3320
0.3850	0.0000	52.4475
0.3860	0.0000	52.5630
0.3870	0.0000	52.6785
0.3880	0.0000	52.7940
0.3890	0.0000	52.9095
0.3900	0.0000	53.0250
0.3910	0.0000	53.1405
0.3920	0.0000	53.2560
0.3930	0.0000	53.3715
0.3940	0.0000	53.4870
0.3950	0.0000	53.6025
0.3960	0.0000	53.7180
0.3970	0.0000	53.8335
0.3980	0.0000	53.9490
0.3990	0.0000	54.0645
0.4000	0.0000	54.1800
0.4010	0.0000	54.2955
0.4020	0.0000	54.4110
0.4030	0.0000	54.5265
0.4040	0.0000	54.6420
0.4050	0.0000	54.7575
0.4060	0.0000	54.8730
0.4070	0.0000	54.9885
0.4080	0.0000	55.1040
